<svg enable-background="new 0 0 291.319 291.319" viewBox="0 0 291.319 291.319" xmlns="http://www.w3.org/2000/svg"><path d="m145.659 0c80.44 0 145.66 65.219 145.66 145.66s-65.219 145.659-145.659 145.659-145.66-65.219-145.66-145.659 65.21-145.66 145.659-145.66z" fill="#3f729b"/><path d="m195.93 63.708h-100.55c-17.47 0-31.672 14.211-31.672 31.672v100.56c0 17.47 14.211 31.672 31.672 31.672h100.56c17.47 0 31.672-14.211 31.672-31.672v-100.56c-.001-17.461-14.212-31.672-31.682-31.672zm9.978 18.326 3.587-.009v27.202l-27.402.091-.091-27.202s23.906-.082 23.906-.082zm-60.248 36.205c22.732 0 27.42 21.339 27.42 27.429 0 15.103-12.308 27.411-27.42 27.411-15.121 0-27.42-12.308-27.42-27.411-.01-6.09 4.688-27.429 27.42-27.429zm63.99 75.716c0 8.658-7.037 15.704-15.713 15.704h-96.864c-8.667 0-15.713-7.037-15.713-15.704v-66.539h22.759c-2.112 5.198-3.305 12.299-3.305 18.253 0 24.708 20.101 44.818 44.818 44.818s44.808-20.11 44.808-44.818c0-5.954-1.193-13.055-3.296-18.253h22.486v66.539z" fill="#fff"/></svg>