<svg enable-background="new 0 0 250 250" height="250" viewBox="0 0 250 250" width="250" xml:space="preserve" xmlns="http://www.w3.org/2000/svg"><path d="m211.813 65.803c-31.596-1.886-25.465-26.409-25.465-26.409-30.902-5.408-54.198-5.121-61.621-4.839-7.422-.282-30.718-.569-61.62 4.839 0 0 6.131 24.523-25.465 26.409 0 0-23.527 105.427 86.926 150.773l.002.135c.053-.022.104-.045.157-.066.053.021.104.044.157.066l.002-.135c110.455-45.346 86.927-150.773 86.927-150.773z" fill="#062d4f"/><path d="m195.297 145.476c-4.146 8.799-9.338 16.993-15.528 24.506-13.563 16.455-32.069 29.749-55.043 39.541-23.086-9.845-41.67-23.225-55.254-39.798-5.98-7.301-11.021-15.239-15.075-23.743 46.014-7.006 94.729-7.025 140.9-.506z" fill="#5bc4ea"/><path d="m206.962 99.763c-.506 7.144-1.61 15.069-3.7 23.355-1.965 7.821-4.633 15.286-7.965 22.357-46.171-6.519-94.886-6.5-140.901.506-3.522-7.38-6.309-15.188-8.333-23.375-1.919-7.767-2.99-15.187-3.517-21.922-1.005-12.848-.045-23.231.736-28.856 9.91-1.472 17.257-5.396 21.877-11.691 3.805-5.185 4.856-10.896 4.968-15.246 20.288-3.187 36.756-3.891 47.343-3.891 3.154 0 5.553.066 7.005.125l.25.006.25-.006c1.458-.059 3.858-.125 7.005-.125 10.593 0 27.062.704 47.348 3.891.112 4.35 1.157 10.062 4.968 15.246 4.614 6.295 11.954 10.212 21.864 11.691.756 5.5 1.683 15.542.802 27.935z" fill="#61ff7e"/><path d="m220.006 101.958c-.013.21-.032.427-.053.645-.61 7.149-1.78 14.97-3.804 23.165-1.873 7.578-4.338 14.852-7.374 21.811-4.462-.762-8.957-1.466-13.479-2.103-46.171-6.519-94.886-6.5-140.901.506-4.501.684-8.977 1.433-13.426 2.254-3.174-7.156-5.73-14.655-7.663-22.468-1.984-8.024-3.147-15.687-3.766-22.718 4.311-.848 8.648-1.636 13.005-2.365 53.664-9.003 110.567-9.273 164.415-.92 4.372.669 8.722 1.405 13.046 2.193z" fill="#062d4f"/><circle cx="125.902" cy="141.342" fill="#fff" r="38.626"/><path d="m159.948 140.599c-.021-.989-.088-1.977-.196-2.954-.927-8.385-4.956-16.201-11.295-21.817-3.228-2.86-7.055-5.151-11.378-6.651-12.09-4.201-24.972-1.16-33.899 6.818-3.036 2.713-5.614 5.999-7.55 9.762l-.016-.005c-.013.036-.023.071-.037.108-.699 1.375-1.318 2.811-1.841 4.31-.859 2.471-1.416 4.977-1.687 7.476-.108.986-.172 1.97-.193 2.952-.048 2.208.125 4.398.499 6.544v.003l.096.525c2.211 11.575 10.372 21.702 22.279 25.841 3.582 1.243 7.234 1.853 10.83 1.885.116.003.231.003.344.003 14.09-.015 27.289-8.84 32.166-22.879.141-.399.271-.801.393-1.204.06-.193.117-.39.172-.583.013-.04.024-.076.031-.114.944-3.333 1.358-6.704 1.282-10.02zm-28.093-30.49c1.501.284 3 .684 4.484 1.2 2.962 1.03 5.675 2.457 8.099 4.203.034.024.066.047.101.071-.084.093-.169.188-.254.28-.225-.139-.453-.277-.685-.411-3.185-1.851-6.881-3.118-9.61-3.89-2.214-.625-3.795-.931-3.952-.96l-.004.032-1.627-.989c1.15.09 2.297.245 3.448.464zm-2.066 1.825c.057.011 3.19.613 6.914 1.914 1.144.398 2.343.865 3.525 1.4 1.606.727 3.183 1.581 4.542 2.574 1.504 1.654 3.84 4.479 4.362 6.595-1.254.914-2.75 1.982-4.15 2.954-1.025.711-2.005 1.377-2.803 1.89-2.121-1.281-9.479-4.226-12.23-4.336-1.568-3.922-4.371-8.224-5.598-10.024-.013-.019-.027-.038-.04-.056 1.289-.96 5.478-2.911 5.478-2.911zm12.232 27.252s-1.28-7.506-1.717-7.726c-3.176-1.591-8.92-3.757-9.93-2.982-4.073 3.126-3.799 3.669-4.869 4.253 0 0 4.479-6.253 5.488-6.038 2.211.47 9.549 3.337 10.126 4.254.579.917.902 8.239.902 8.239zm-18.928-23.722c1.127 1.646 4.129 6.197 5.672 10.156-1.475 2.071-6.226 8.778-7.513 10.897-4.415.272-11.724.478-13.6.527-1.053-1.495-3.417-4.985-4.205-7.137 2.23-6.601 6.651-11.7 7.987-13.143 2.487-.625 8.188-1.889 11.659-1.3zm-17.629 21.654c-.333-.934-3.632-5.712-3.989-5.717-.356-.004-3.166 1.38-3.166 1.38s3.481-2.973 3.796-2.505 4.306 6.515 4.229 7.084c-.08.57-.926 4.04-.926 4.04s.236-3.778.056-4.282zm1.737-21.469c.764-.557 1.554-1.077 2.362-1.562l.297 1.365.177.828c-1.678 1.87-5.457 6.51-7.65 12.56-1.327.695-3.885 2.159-5.508 3.878-.299-.723-.575-1.695-.606-2.889 2.276-5.873 6.141-10.708 10.928-14.18zm-11.263 30.953c-.208.715-.496 1.772-.753 2.897-.239-.891-.438-1.793-.596-2.703-.359-2.036-.521-4.119-.472-6.219.023-.976.092-1.955.207-2.933.202-1.717.543-3.432 1.04-5.138.211.66.466 1.202.696 1.615-.148.698-.39 1.974-.562 3.522-.101.901-.175 1.896-.196 2.922-.035 1.931.136 3.973.727 5.733-.028.096-.06.196-.091.304zm6.972 16.692c-3.034-3.19-5.365-6.97-6.866-11.071.183-1.333.601-3.111 1.021-4.626 1.108.576 3.423 1.663 5.701 2.025-.045-.075-.074-.129-.087-.15l.856.244.22-1.276c.006.01.051.089.13.229.27-.796.674-1.973 1.127-3.262.581-1.645 1.247-3.472 1.832-4.933.343-.854.662-1.581.915-2.076 1.963-.054 9.016-.255 13.422-.52.323.614.939 1.487 1.708 2.468.771.984 1.697 2.08 2.638 3.135.011.012.021.024.033.035.114.127.228.255.344.382 1.594 1.764 3.178 3.354 4.063 4.039-.629 1.538-2.472 6.032-4.063 9.873-.117.281-.232.56-.344.83-.273.655-.533 1.278-.775 1.856-1.27.418-4.917 1.339-11.358.85-3.546-2.459-8.661-11.152-9.542-12.678-.217.649-.35 1.048-.35 1.048-.254-.022-.511-.054-.77-.094.736 1.258 5.557 9.4 9.373 12.443-.021.938-.053 2.509-.053 3.899 0 .705.007 1.362.028 1.863-2.28-.029-4.535-.891-5.945-1.556-1.161-.919-2.248-1.917-3.258-2.977zm12.559 8.083c-1.84-.639-3.588-1.435-5.229-2.362.978.163 2.001.225 3.022.119 2.133.787 6.985 2.532 9.592 3.033.218.289.571.613 1.132.915-2.839-.17-5.7-.727-8.517-1.705zm2.108-8.427c.38.054 6.543-.833 7.048-.339s4.103 3.896 4.103 3.896-3.631-2.735-4.663-2.975c-1.031-.238-6.488-.582-6.488-.582zm12.353 9.925c-1.832-.048-3.12-.253-4.025-.504-.122-.034-.236-.069-.344-.104-.343-.112-.617-.229-.841-.345.245-.108.528-.235.841-.378.112-.048.226-.1.344-.153 1.708-.777 4.082-1.91 5.494-2.804 1.375-.096 9.604-.822 15.496-5.007l1.099.626c-4.926 4.741-11.282 7.794-18.064 8.669zm17.383-11.345c-4.978 4.286-12.901 5.398-15.393 5.647-.896-.615-2.582-1.852-4.102-3.422-.707-.73-1.379-1.531-1.915-2.374-.004-.008-.008-.014-.014-.022.006-.01.009-.021.014-.03 1.861-4.438 4.973-12.046 5.479-13.275 2.302-.576 8.489-2.167 10.944-3.238.544.464 1.214 1.047 1.946 1.694 2.183 1.937 4.903 4.452 6.395 6.168-.457 3.357-2.205 6.847-3.354 8.852zm8.521-15.943c-.111.971-.26 1.965-.453 2.967 0 0-2.94 2.334-3.998 2.894-1.799-2.003-4.677-4.609-6.629-6.322-.572-.501-1.063-.927-1.426-1.238-.003-.165-.003-.391-.008-.671-.009-.667-.021-1.637-.041-2.753-.015-.872-.03-1.838-.055-2.818-.069-2.858-.175-5.866-.337-7.233.742-.477 1.596-1.05 2.464-1.646 1.691-1.167 3.429-2.419 4.477-3.18 1.339 1.383 5.474 6.291 5.474 6.291.011.045.514 2.326.722 5.769.055.901.09 1.879.09 2.922-.001 1.556-.078 3.251-.28 5.018zm1.446.907c-.114.691-.25 1.381-.411 2.072-.029-.06-.056-.115-.082-.169.124-.689.23-1.371.318-2.041.267-2.048.367-4.002.37-5.779.003-1.045-.031-2.025-.085-2.933-.026-.459-.059-.898-.095-1.316.068.438.13.876.183 1.316.114.97.187 1.949.209 2.936.052 1.957-.082 3.936-.407 5.914z" fill="#062d4f"/><path d="m68.433 119.659 3.889.442-2.717 2.818.782 3.836-3.52-1.713-3.406 1.928.541-3.877-2.886-2.643 3.855-.683 1.621-3.561z" fill="#fff"/><path d="m186.842 119.659 3.888.442-2.716 2.818.781 3.836-3.52-1.713-3.405 1.928.541-3.877-2.887-2.643 3.855-.683 1.622-3.561z" fill="#fff"/><path d="m26.024 116.206-17.524 4.17 15.005 16.809-7.448 20.978 30.559-3.725v-3.285l-8.872.328z" fill="#062d4f"/><path d="m224.825 116.206 17.525 4.17-15.006 16.809 7.448 20.978-30.559-3.725v-3.285l8.873.328z" fill="#062d4f"/><path d="m64.91 92.4s70.094-11.531 142.818.723" fill="none"/><text transform="matrix(.9929 -.1189 .1189 .9929 71.9297 91.3931)"><tspan fill="#062d4f" font-family="'AmaticSC-Bold'" font-size="19.7148" x="0" y="0">C</tspan><tspan fill="#062d4f" font-family="'AmaticSC-Bold'" font-size="19.7148" rotate="0.861" x="6.612" y=".002">H</tspan><tspan fill="#062d4f" font-family="'AmaticSC-Bold'" font-size="19.7148" rotate="1.649" x="13.049" y=".097">A</tspan><tspan fill="#062d4f" font-family="'AmaticSC-Bold'" font-size="19.7148" rotate="2.531" x="19.897" y=".286">M</tspan><tspan fill="#062d4f" font-family="'AmaticSC-Bold'" font-size="19.7148" rotate="3.32" x="28.781" y=".69">P</tspan><tspan fill="#062d4f" font-family="'AmaticSC-Bold'" font-size="19.7148" rotate="3.893" x="34.416" y="1.019">I</tspan><tspan fill="#062d4f" font-family="'AmaticSC-Bold'" font-size="19.7148" rotate="4.536" x="39.44" y="1.356">O</tspan><tspan fill="#062d4f" font-family="'AmaticSC-Bold'" font-size="19.7148" rotate="5.345" x="46.381" y="1.902">N</tspan><tspan fill="#062d4f" font-family="'AmaticSC-Bold'" font-size="19.7148" rotate="6.11" x="54.396" y="2.658">S</tspan><tspan fill="#062d4f" rotate="6.643" x="60.411" y="3.307"/><tspan fill="#062d4f" font-family="'AmaticSC-Bold'" font-size="19.7148" rotate="7.117" x="63.961" y="3.718">L</tspan><tspan fill="#062d4f" font-family="'AmaticSC-Bold'" font-size="19.7148" rotate="7.704" x="68.821" y="4.323">E</tspan><tspan fill="#062d4f" font-family="'AmaticSC-Bold'" font-size="19.7148" rotate="8.417" x="74.205" y="5.045">A</tspan><tspan fill="#062d4f" font-family="'AmaticSC-Bold'" font-size="19.7148" rotate="9.258" x="80.984" y="6.047">G</tspan><tspan fill="#062d4f" font-family="'AmaticSC-Bold'" font-size="19.7148" rotate="10.189" x="88.147" y="7.211">U</tspan><tspan fill="#062d4f" font-family="'AmaticSC-Bold'" font-size="19.7148" rotate="11.032" x="95.853" y="8.604">E</tspan></text><text fill="#062d4f" font-family="'AmaticSC-Bold'" font-size="24.972" transform="translate(92.0625 68.1748)">PACÍFICO</text></svg>